<svg width="30" height="26" viewBox="0 0 30 26" fill="none" xmlns="http://www.w3.org/2000/svg">
<path d="M26.1953 2.95312C23.1875 0.4375 18.7578 0.820312 15.9688 3.71875L14.9297 4.8125L13.8359 3.71875C11.5938 1.42188 7.10938 0 3.60938 2.95312C0.164062 5.90625 0 11.1562 3.0625 14.3281L13.6719 25.2656C14 25.5938 14.4375 25.7578 14.875 25.7578C15.3672 25.7578 15.8047 25.5938 16.1328 25.2656L26.7422 14.3281C29.8047 11.1562 29.6406 5.90625 26.1953 2.95312ZM25.4844 13.125L14.9297 24.0625L4.32031 13.125C2.24219 10.9375 1.80469 6.83594 4.75781 4.32031C7.76562 1.75 11.2656 3.60938 12.5781 4.92188L14.9297 7.32812L17.2266 4.92188C18.4844 3.60938 22.0391 1.75 25.0469 4.32031C28 6.83594 27.5625 10.9375 25.4844 13.125Z" fill="#B02E51"/>
</svg>
